<svg width="38" height="40" viewBox="0 0 38 40" fill="none" xmlns="http://www.w3.org/2000/svg">
<path d="M31.2033 6.83733C30.3496 7.19866 12.3464 15.36 6.14609 18.168C5.78383 18.332 5.06689 18.5813 5.06689 19.3947C5.06689 20.048 5.53303 20.3707 6.07009 20.6013C7.42669 21.184 12.4174 23.3333 12.4174 23.3333C12.4174 23.3333 14.1996 29.0747 14.5694 30.3333C14.9393 31.5933 15.237 31.6227 15.237 31.6227C15.3193 31.6613 15.3991 31.676 15.4738 31.676C15.712 31.676 15.8956 31.5267 15.8956 31.5267L20.5468 27.292L26.0036 32.7253C26.0036 32.7253 26.5458 33.3333 27.1449 33.3333C27.8745 33.3333 28.4027 32.5507 28.4952 32.0413C28.6231 31.3293 32.8576 8.44933 32.8576 8.44933C33.2414 6.60533 32.1026 6.45466 31.2033 6.83733Z" stroke="white" stroke-width="2" stroke-miterlimit="10"/>
<path d="M26.4301 13.3334C26.2363 13.3334 25.9753 13.532 25.836 13.6254C23.841 14.964 13.8419 21.088 11.0996 22.7654C11.8723 23.0987 12.4169 23.3334 12.4169 23.3334C12.4169 23.3334 14.1991 29.0747 14.569 30.3334C14.9389 31.5934 15.2365 31.6227 15.2365 31.6227C15.3189 31.6614 15.3987 31.676 15.4734 31.676C15.5342 31.676 15.576 31.6534 15.6267 31.6374L17.4494 23.9574C17.4494 23.9574 25.7537 14.9107 26.254 14.384C26.6568 13.9627 26.7404 13.8134 26.7404 13.668C26.7404 13.4734 26.6454 13.3334 26.4301 13.3334Z" fill="white"/>
</svg>
